<svg width="18" height="13" viewBox="0 0 18 13" fill="none" xmlns="http://www.w3.org/2000/svg">
<path d="M8 12.0557H10C10.55 12.0557 11 11.6057 11 11.0557C11 10.5057 10.55 10.0557 10 10.0557H8C7.45 10.0557 7 10.5057 7 11.0557C7 11.6057 7.45 12.0557 8 12.0557ZM0 1.05566C0 1.60566 0.45 2.05566 1 2.05566H17C17.55 2.05566 18 1.60566 18 1.05566C18 0.505664 17.55 0.0556641 17 0.0556641H1C0.45 0.0556641 0 0.505664 0 1.05566ZM4 7.05566H14C14.55 7.05566 15 6.60566 15 6.05566C15 5.50566 14.55 5.05566 14 5.05566H4C3.45 5.05566 3 5.50566 3 6.05566C3 6.60566 3.45 7.05566 4 7.05566Z" fill="white"/>
</svg>
